<?xml version="1.0" encoding="UTF-8"?>
<svg id="ICON" xmlns="http://www.w3.org/2000/svg" viewBox="0 0 242 242">
  <defs>
    <style>
      .cls-1 {
        fill: #fff;
        fill-rule: evenodd;
      }

      .cls-1, .cls-2 {
        stroke-width: 0px;
      }

      .cls-2 {
        fill: #1d1d1b;
      }
    </style>
  </defs>
  <path class="cls-2" d="m126.6,24.77c13.46-3.61,27.82.24,37.67,10.09l42.87,42.87c9.85,9.85,13.7,24.21,10.09,37.67l-15.69,58.56c-3.61,13.46-14.12,23.97-27.58,27.58l-58.56,15.69c-13.46,3.61-27.82-.24-37.67-10.09l-42.87-42.87c-9.85-9.85-13.7-24.21-10.09-37.67l15.69-58.56c3.61-13.46,14.12-23.97,27.58-27.58l58.56-15.69Z"/>
  <path class="cls-1" d="m137.47,60.81c0,7.96-6.45,14.41-14.41,14.41s-14.41-6.45-14.41-14.41,6.45-14.41,14.41-14.41,14.41,6.45,14.41,14.41Zm-.28,118.88c0,7.96-6.45,14.41-14.41,14.41s-14.41-6.45-14.41-14.41,6.45-14.41,14.41-14.41,14.41,6.45,14.41,14.41Zm36-81.8c4.73,0,8.57-3.84,8.57-8.57s-3.84-8.57-8.57-8.57-8.57,3.84-8.57,8.57,3.84,8.57,8.57,8.57Zm-94.79,54.48c0-4.73-3.84-8.57-8.57-8.57s-8.57,3.84-8.57,8.57,3.84,8.57,8.57,8.57,8.57-3.84,8.57-8.57Zm96.71,14.92c9.09,0,16.46-7.37,16.46-16.46s-7.37-16.46-16.46-16.46-16.46,7.37-16.46,16.46,7.37,16.46,16.46,16.46Zm-89-76.69c0-9.09-7.37-16.46-16.46-16.46s-16.46,7.37-16.46,16.46,7.37,16.46,16.46,16.46,16.46-7.37,16.46-16.46Zm51.88-15.91c-3.72,3.97-8.98,6.44-14.8,6.44s-11.2-2.53-14.93-6.58c-1.44-1.57-3.76-2.2-5.62-1.16l-9.85,5.52c-1.85,1.04-2.53,3.34-1.93,5.38.61,2.05.94,4.23.94,6.48,0,1.85-.22,3.65-.64,5.37-.46,1.9.18,3.98,1.85,5.01l6.3,3.87c1.41.87,1.87,2.72,1.03,4.15-.85,1.42-2.68,1.88-4.09,1.01l-6.06-3.72c-1.75-1.07-3.99-.62-5.48.79-2.99,2.82-6.74,4.83-10.91,5.68-2.12.43-3.87,2.17-3.87,4.33v17.95c0,2.15,1.74,3.86,3.78,4.54,5.5,1.84,9.48,7.1,9.48,13.31,0,.58-.03,1.14-.1,1.7-.23,1.97.46,4.06,2.19,5.02l16.87,9.46c1.95,1.09,4.39.34,5.82-1.37,2.32-2.78,5.36-4.92,8.83-6.11,1.89-.65,3.36-2.32,3.33-4.32l-.14-8.87c-.03-1.66,1.3-3.02,2.95-3.05,1.66-.03,3.02,1.3,3.05,2.95l.14,9.07c.03,1.95,1.48,3.56,3.33,4.18,3.46,1.17,6.5,3.27,8.83,6.01,1.43,1.69,3.85,2.42,5.79,1.34l8.87-4.97c1.94-1.09,2.58-3.53,1.84-5.63-.82-2.34-1.27-4.84-1.27-7.46,0-11.05,7.98-20.25,18.55-22.26,2.14-.41,3.9-2.15,3.9-4.33v-19.1c0-1.29-1.18-2.26-2.47-2.26-2.63,0-5.09-.74-7.2-2.02-1.51-.92-3.43-1.2-4.96-.31l-10.76,6.24c-1.43.83-3.25.33-4.06-1.11-.81-1.44-.31-3.29,1.13-4.12l9.87-5.73c1.73-1,2.39-3.12,2.1-5.1-.1-.69-.15-1.4-.15-2.12,0-.76.06-1.5.17-2.23.31-2.02-.37-4.2-2.15-5.2l-13.92-7.8c-1.84-1.03-4.14-.42-5.59,1.12Zm-15.04,15.32c1.66,0,3,1.34,3,3v6.55c0,1.08.72,2,1.66,2.52l10.72,5.97c2.85,1.59,4.62,4.6,4.62,7.86v11.37c0,1.2.46,2.41,1.49,3.04l6.24,3.83c1.41.87,1.86,2.71.99,4.13-.87,1.41-2.71,1.86-4.13.99l-6.79-4.16c-.74-.45-1.67-.38-2.43.04l-10.72,5.97c-2.72,1.51-6.03,1.51-8.75,0l-10.72-5.97c-1.14-.63-2.54-.84-3.67-.19l-11.42,6.61c-1.43.83-3.27.34-4.1-1.09s-.34-3.27,1.09-4.1l12.48-7.23c.65-.38.99-1.11.99-1.87v-11.37c0-3.27,1.77-6.28,4.62-7.86l10.72-5.97c.64-.36,1.1-1,1.1-1.73v-7.34c0-1.66,1.34-3,3-3Zm12.95,22.41l-10.72-5.97c-1.21-.67-2.68-.67-3.89,0l-10.72,5.97c-1.27.71-2.05,2.04-2.05,3.5v11.37c0,1.45.79,2.79,2.05,3.5l10.72,5.97c1.21.67,2.68.67,3.89,0l10.72-5.97c1.27-.71,2.06-2.04,2.06-3.5v-11.37c0-1.45-.79-2.79-2.06-3.5Z"/>
</svg>