<?xml version="1.0" encoding="UTF-8" standalone="no"?>
<svg
   id="ICON"
   viewBox="0 0 128 128"
   version="1.1"
   sodipodi:docname="io.github.Rirusha.Cassette-symbolic.svg"
   xml:space="preserve"
   width="128"
   height="128"
   inkscape:version="1.3.2 (091e20ef0f, 2023-11-25)"
   xmlns:inkscape="http://www.inkscape.org/namespaces/inkscape"
   xmlns:sodipodi="http://sodipodi.sourceforge.net/DTD/sodipodi-0.dtd"
   xmlns="http://www.w3.org/2000/svg"
   xmlns:svg="http://www.w3.org/2000/svg"><sodipodi:namedview
     id="namedview2"
     pagecolor="#ffffff"
     bordercolor="#000000"
     borderopacity="0.25"
     inkscape:showpageshadow="2"
     inkscape:pageopacity="0.0"
     inkscape:pagecheckerboard="0"
     inkscape:deskcolor="#d1d1d1"
     inkscape:zoom="2.3463089"
     inkscape:cx="109.95995"
     inkscape:cy="114.00886"
     inkscape:window-width="1920"
     inkscape:window-height="1011"
     inkscape:window-x="0"
     inkscape:window-y="0"
     inkscape:window-maximized="1"
     inkscape:current-layer="ICON" /><defs
     id="defs1"><style
       id="style1">
      .cls-1 {
        fill: #fff;
        fill-rule: evenodd;
      }

      .cls-1, .cls-2 {
        stroke-width: 0px;
      }

      .cls-2 {
        fill: #1d1d1b;
      }
    </style><inkscape:path-effect
       effect="fillet_chamfer"
       id="path-effect4"
       is_visible="true"
       lpeversion="1"
       nodesatellites_param="F,0,0,1,0,4.6737453,0,1 @ F,0,0,1,0,2.2201753,0,1 @ F,0,0,1,0,1.795416,0,1 @ F,0,0,1,0,0,0,1 @ F,0,0,1,0,0,0,1 @ F,0,0,1,0,0,0,1 @ F,0,0,1,0,0,0,1 @ F,0,0,1,0,0,0,1 @ F,0,0,1,0,0,0,1 @ F,0,0,1,0,0,0,1 | F,0,0,1,0,0,0,1 @ F,0,0,1,0,0,0,1 @ F,0,0,1,0,0,0,1 @ F,0,0,1,0,0,0,1"
       radius="0"
       unit="px"
       method="auto"
       mode="F"
       chamfer_steps="1"
       flexible="false"
       use_knot_distance="true"
       apply_no_radius="true"
       apply_with_radius="true"
       only_selected="false"
       hide_knots="false" /><inkscape:path-effect
       effect="fillet_chamfer"
       id="path-effect3"
       is_visible="true"
       lpeversion="1"
       nodesatellites_param="F,0,0,1,0,0,0,1 @ F,0,0,1,0,0,0,1 @ F,0,0,1,0,0,0,1 @ F,0,0,1,0,0,0,1 @ F,0,0,1,0,0,0,1 @ F,0,0,1,0,0,0,1 @ F,0,0,1,0,0,0,1 @ F,0,0,1,0,0,0,1 @ F,0,0,1,0,0,0,1 @ F,0,0,1,0,0,0,1 @ F,0,0,1,0,4.2609818,0,1 @ F,0,0,1,0,3.9060244,0,1 @ F,0,0,1,0,0,0,1 @ F,0,0,1,0,0,0,1 @ F,0,0,1,0,0,0,1 @ F,0,0,1,0,0,0,1 @ F,0,0,1,0,0,0,1 @ F,0,0,1,0,0,0,1 @ F,0,0,1,0,0,0,1 @ F,0,0,1,0,0,0,1 @ F,0,0,1,0,2.5710778,0,1 @ F,0,0,1,0,2.5698802,0,1 | F,0,0,1,0,0,0,1 @ F,0,0,1,0,0,0,1 @ F,0,0,1,0,0,0,1 @ F,0,0,1,0,0,0,1 | F,0,0,1,0,0,0,1 @ F,0,0,1,0,0,0,1 @ F,0,0,1,0,0,0,1 @ F,0,0,1,0,0,0,1 | F,0,0,1,0,0,0,1 @ F,0,0,1,0,0,0,1 @ F,0,0,1,0,0,0,1 @ F,0,0,1,0,0,0,1 | F,0,0,1,0,0,0,1 @ F,0,0,1,0,0,0,1 @ F,0,0,1,0,0,0,1 @ F,0,0,1,0,0,0,1"
       radius="0"
       unit="px"
       method="auto"
       mode="F"
       chamfer_steps="1"
       flexible="false"
       use_knot_distance="true"
       apply_no_radius="true"
       apply_with_radius="true"
       only_selected="false"
       hide_knots="false" /><inkscape:path-effect
       effect="fillet_chamfer"
       id="path-effect2"
       is_visible="true"
       lpeversion="1"
       nodesatellites_param="F,0,0,1,0,0,0,1 @ F,0,0,1,0,0,0,1 @ F,0,0,1,0,0,0,1 @ F,0,0,1,0,0,0,1 @ F,0,0,1,0,0,0,1 @ F,0,0,1,0,0,0,1 @ F,0,0,1,0,0,0,1 @ F,0,0,1,0,0,0,1 @ F,0,0,1,0,0,0,1 @ F,0,0,1,0,0,0,1 @ F,0,0,1,0,0,0,1 @ F,0,0,1,0,0,0,1 @ F,0,0,1,0,0,0,1 @ F,0,0,1,0,0,0,1 @ F,0,0,1,0,0,0,1 @ F,0,0,1,0,0,0,1 @ F,0,0,1,0,0,0,1 @ F,0,0,1,0,0,0,1 @ F,0,0,1,0,0,0,1 @ F,0,0,1,0,0,0,1 @ F,0,0,1,0,0,0,1 @ F,0,0,1,0,2.3764884,0,1 @ F,0,0,1,0,0,0,1 | F,0,0,1,0,0,0,1 @ F,0,0,1,0,0,0,1 @ F,0,0,1,0,0,0,1 @ F,0,0,1,0,0,0,1 | F,0,0,1,0,0,0,1 @ F,0,0,1,0,0,0,1 @ F,0,0,1,0,0,0,1 @ F,0,0,1,0,0,0,1 | F,0,0,1,0,0,0,1 @ F,0,0,1,0,0,0,1 @ F,0,0,1,0,0,0,1 @ F,0,0,1,0,0,0,1 | F,0,0,1,0,0,0,1 @ F,0,0,1,0,0,0,1 @ F,0,0,1,0,0,0,1 @ F,0,0,1,0,0,0,1"
       radius="0"
       unit="px"
       method="auto"
       mode="F"
       chamfer_steps="1"
       flexible="false"
       use_knot_distance="true"
       apply_no_radius="true"
       apply_with_radius="true"
       only_selected="false"
       hide_knots="false" /><filter
       id="filter0_i_12_4"
       x="16"
       y="39"
       width="96"
       height="24"
       filterUnits="userSpaceOnUse"
       color-interpolation-filters="sRGB"><feFlood
         flood-opacity="0"
         result="BackgroundImageFix"
         id="feFlood17" /><feBlend
         mode="normal"
         in="SourceGraphic"
         in2="BackgroundImageFix"
         result="shape"
         id="feBlend17" /><feColorMatrix
         in="SourceAlpha"
         type="matrix"
         values="0 0 0 0 0 0 0 0 0 0 0 0 0 0 0 0 0 0 127 0"
         result="hardAlpha"
         id="feColorMatrix17" /><feOffset
         dy="1"
         id="feOffset17" /><feComposite
         in2="hardAlpha"
         operator="arithmetic"
         k2="-1"
         k3="1"
         id="feComposite17"
         k1="0"
         k4="0" /><feColorMatrix
         type="matrix"
         values="0 0 0 0 0 0 0 0 0 0 0 0 0 0 0 0 0 0 0.25 0"
         id="feColorMatrix18" /><feBlend
         mode="normal"
         in2="shape"
         result="effect1_innerShadow_12_4"
         id="feBlend18" /></filter><filter
       id="filter1_i_12_4"
       x="99"
       y="89.814598"
       width="5"
       height="5"
       filterUnits="userSpaceOnUse"
       color-interpolation-filters="sRGB"><feFlood
         flood-opacity="0"
         result="BackgroundImageFix"
         id="feFlood18" /><feBlend
         mode="normal"
         in="SourceGraphic"
         in2="BackgroundImageFix"
         result="shape"
         id="feBlend19" /><feColorMatrix
         in="SourceAlpha"
         type="matrix"
         values="0 0 0 0 0 0 0 0 0 0 0 0 0 0 0 0 0 0 127 0"
         result="hardAlpha"
         id="feColorMatrix19" /><feOffset
         dy="1"
         id="feOffset19" /><feComposite
         in2="hardAlpha"
         operator="arithmetic"
         k2="-1"
         k3="1"
         id="feComposite19"
         k1="0"
         k4="0" /><feColorMatrix
         type="matrix"
         values="0 0 0 0 0 0 0 0 0 0 0 0 0 0 0 0 0 0 0.25 0"
         id="feColorMatrix20" /><feBlend
         mode="normal"
         in2="shape"
         result="effect1_innerShadow_12_4"
         id="feBlend20" /></filter><filter
       id="filter2_i_12_4"
       x="51"
       y="94.814598"
       width="5"
       height="5"
       filterUnits="userSpaceOnUse"
       color-interpolation-filters="sRGB"><feFlood
         flood-opacity="0"
         result="BackgroundImageFix"
         id="feFlood20" /><feBlend
         mode="normal"
         in="SourceGraphic"
         in2="BackgroundImageFix"
         result="shape"
         id="feBlend21" /><feColorMatrix
         in="SourceAlpha"
         type="matrix"
         values="0 0 0 0 0 0 0 0 0 0 0 0 0 0 0 0 0 0 127 0"
         result="hardAlpha"
         id="feColorMatrix21" /><feOffset
         dy="1"
         id="feOffset21" /><feComposite
         in2="hardAlpha"
         operator="arithmetic"
         k2="-1"
         k3="1"
         id="feComposite21"
         k1="0"
         k4="0" /><feColorMatrix
         type="matrix"
         values="0 0 0 0 0 0 0 0 0 0 0 0 0 0 0 0 0 0 0.25 0"
         id="feColorMatrix22" /><feBlend
         mode="normal"
         in2="shape"
         result="effect1_innerShadow_12_4"
         id="feBlend22" /></filter><filter
       id="filter3_i_12_4"
       x="72"
       y="94.814598"
       width="5"
       height="5"
       filterUnits="userSpaceOnUse"
       color-interpolation-filters="sRGB"><feFlood
         flood-opacity="0"
         result="BackgroundImageFix"
         id="feFlood22" /><feBlend
         mode="normal"
         in="SourceGraphic"
         in2="BackgroundImageFix"
         result="shape"
         id="feBlend23" /><feColorMatrix
         in="SourceAlpha"
         type="matrix"
         values="0 0 0 0 0 0 0 0 0 0 0 0 0 0 0 0 0 0 127 0"
         result="hardAlpha"
         id="feColorMatrix23" /><feOffset
         dy="1"
         id="feOffset23" /><feComposite
         in2="hardAlpha"
         operator="arithmetic"
         k2="-1"
         k3="1"
         id="feComposite23"
         k1="0"
         k4="0" /><feColorMatrix
         type="matrix"
         values="0 0 0 0 0 0 0 0 0 0 0 0 0 0 0 0 0 0 0.25 0"
         id="feColorMatrix24" /><feBlend
         mode="normal"
         in2="shape"
         result="effect1_innerShadow_12_4"
         id="feBlend24" /></filter><filter
       id="filter4_i_12_4"
       x="24"
       y="89.814598"
       width="5"
       height="5"
       filterUnits="userSpaceOnUse"
       color-interpolation-filters="sRGB"><feFlood
         flood-opacity="0"
         result="BackgroundImageFix"
         id="feFlood24" /><feBlend
         mode="normal"
         in="SourceGraphic"
         in2="BackgroundImageFix"
         result="shape"
         id="feBlend25" /><feColorMatrix
         in="SourceAlpha"
         type="matrix"
         values="0 0 0 0 0 0 0 0 0 0 0 0 0 0 0 0 0 0 127 0"
         result="hardAlpha"
         id="feColorMatrix25" /><feOffset
         dy="1"
         id="feOffset25" /><feComposite
         in2="hardAlpha"
         operator="arithmetic"
         k2="-1"
         k3="1"
         id="feComposite25"
         k1="0"
         k4="0" /><feColorMatrix
         type="matrix"
         values="0 0 0 0 0 0 0 0 0 0 0 0 0 0 0 0 0 0 0.25 0"
         id="feColorMatrix26" /><feBlend
         mode="normal"
         in2="shape"
         result="effect1_innerShadow_12_4"
         id="feBlend26" /></filter><linearGradient
       id="paint0_linear_12_4"
       x1="8"
       y1="110.815"
       x2="120"
       y2="110.815"
       gradientUnits="userSpaceOnUse"><stop
         stop-color="#545454"
         id="stop26"
         offset="0"
         style="stop-color:#474747;stop-opacity:1;" /><stop
         offset="0.0176714"
         stop-color="#9F9F9F"
         id="stop27" /><stop
         offset="0.0716421"
         stop-color="#545454"
         id="stop28"
         style="stop-color:#474747;stop-opacity:1;" /><stop
         offset="0.92859203"
         stop-color="#545454"
         id="stop29"
         style="stop-color:#474747;stop-opacity:1;" /><stop
         offset="0.981657"
         stop-color="#9F9F9F"
         id="stop30" /><stop
         offset="1"
         stop-color="#545454"
         id="stop31"
         style="stop-color:#474747;stop-opacity:1;" /></linearGradient><linearGradient
       id="paint1_linear_12_4"
       x1="96.001297"
       y1="22.8146"
       x2="96.001297"
       y2="70.814598"
       gradientUnits="userSpaceOnUse"><stop
         stop-color="#FF5D3D"
         id="stop32" /><stop
         offset="1"
         stop-color="#FC3D17"
         id="stop33" /></linearGradient><linearGradient
       id="paint2_linear_12_4"
       x1="40"
       y1="30.8146"
       x2="40.096699"
       y2="70.8144"
       gradientUnits="userSpaceOnUse"><stop
         stop-color="#FF5D3D"
         id="stop34" /><stop
         offset="1"
         stop-color="#FC3D17"
         id="stop35" /></linearGradient></defs><path
     class="cls-1"
     d="m 74.997248,20.68148 c 0,5.801067 -4.700613,10.501681 -10.50168,10.501681 -5.801067,0 -10.501681,-4.700614 -10.501681,-10.501681 0,-5.801068 4.700614,-10.501681 10.501681,-10.501681 5.801067,0 10.50168,4.700613 10.50168,10.501681 z m -0.204058,86.63704 c 0,5.80107 -4.700613,10.50168 -10.50168,10.50168 -5.801067,0 -10.501681,-4.70061 -10.501681,-10.50168 0,-5.80107 4.700614,-10.501676 10.501681,-10.501676 5.801067,0 10.50168,4.700606 10.50168,10.501676 z m 26.23599,-59.613979 c 3.44711,0 6.24562,-2.798504 6.24562,-6.245621 0,-3.447116 -2.79851,-6.245621 -6.24562,-6.245621 -3.447124,0 -6.245629,2.798505 -6.245629,6.245621 0,3.447117 2.798505,6.245621 6.245629,6.245621 z M 31.948375,87.408325 c 0,-3.447116 -2.798505,-6.24562 -6.245621,-6.24562 -3.447116,0 -6.245622,2.798504 -6.245622,6.24562 0,3.447112 2.798506,6.245621 6.245622,6.245621 3.447116,0 6.245621,-2.798509 6.245621,-6.245621 z m 70.480045,10.873361 c 6.62459,0 11.99568,-5.371093 11.99568,-11.995678 0,-6.624583 -5.37109,-11.995672 -11.99568,-11.995672 -6.624581,0 -11.995669,5.371089 -11.995669,11.995672 0,6.624585 5.371088,11.995678 11.995669,11.995678 z M 37.567248,42.391755 c 0,-6.624586 -5.371089,-11.995675 -11.995675,-11.995675 -6.624585,0 -11.995673,5.371089 -11.995673,11.995675 0,6.624585 5.371088,11.995674 11.995673,11.995674 6.624586,0 11.995675,-5.371089 11.995675,-11.995674 z M 75.376212,30.796909 c -2.711051,2.893246 -6.544419,4.693325 -10.785903,4.693325 -4.241484,0 -8.162306,-1.843807 -10.880645,-4.795354 -1.04944,-1.144181 -2.740202,-1.603311 -4.095728,-0.845382 l -7.178457,4.022851 c -1.348237,0.757928 -1.843806,2.434115 -1.40654,3.920822 0.444555,1.493993 0.685051,3.082727 0.685051,4.722476 0,1.348238 -0.160331,2.660036 -0.466417,3.913534 -0.335238,1.384677 0.131179,2.900533 1.348238,3.651174 l 4.591297,2.820368 c 1.027576,0.634036 1.362813,1.982274 0.75064,3.024425 -0.619461,1.034865 -1.953123,1.370102 -2.9807,0.736065 l -4.416389,-2.711051 c -1.27536,-0.779792 -2.907822,-0.451841 -3.993699,0.575734 -2.179045,2.055152 -4.911959,3.519994 -7.95096,4.139455 -1.545009,0.313375 -2.820369,1.581447 -2.820369,3.155606 v 13.081552 c 0,1.56687 1.268073,2.81308 2.754778,3.308649 4.008275,1.340949 6.908809,5.174316 6.908809,9.700023 0,0.422691 -0.02187,0.830807 -0.07288,1.238921 -0.167618,1.435688 0.335238,2.958838 1.596022,3.658461 l 12.294473,6.894234 c 1.421115,0.794363 3.199333,0.247781 4.241484,-0.998424 1.690763,-2.026001 3.906246,-3.585585 6.435103,-4.452834 1.377389,-0.473697 2.448691,-1.690758 2.426829,-3.148311 l -0.102031,-6.464256 c -0.02187,-1.20977 0.94741,-2.200907 2.149893,-2.22277 1.20977,-0.02187 2.200907,0.947409 2.22277,2.149892 l 0.102028,6.61001 c 0.02187,1.42111 1.078591,2.59445 2.426829,3.046291 2.521569,0.852672 4.737052,2.383101 6.435103,4.379948 1.042151,1.231638 2.805793,1.763647 4.21962,0.976558 l 6.464255,-3.622018 c 1.413828,-0.794363 1.880244,-2.572584 1.34095,-4.103012 -0.597597,-1.705345 -0.925547,-3.527287 -0.925547,-5.436683 0,-8.052987 5.815642,-14.757739 13.518831,-16.22258 1.55958,-0.2988 2.84223,-1.566871 2.84223,-3.155606 V 53.119356 c 0,-0.940123 -0.85996,-1.647037 -1.80009,-1.647037 -1.916686,0 -3.709477,-0.539295 -5.247198,-1.472129 -1.100453,-0.670476 -2.499705,-0.874533 -3.614735,-0.225922 l -7.841643,4.547571 c -1.042151,0.604885 -2.368526,0.240496 -2.958835,-0.808943 -0.59031,-1.04944 -0.225922,-2.397678 0.823518,-3.002563 l 7.193031,-4.175893 c 1.260785,-0.728778 1.741778,-2.273785 1.530433,-3.716764 -0.07288,-0.502856 -0.109318,-1.020289 -0.109318,-1.545008 0,-0.553871 0.04373,-1.093166 0.123892,-1.625174 0.225922,-1.472129 -0.269647,-3.060864 -1.56687,-3.789641 L 79.44279,29.97339 c -1.340951,-0.750641 -3.017139,-0.306086 -4.073865,0.81623 z m -10.96081,11.164867 c 1.20977,0 2.186332,0.976562 2.186332,2.186332 v 4.773491 c 0,0.78708 0.524719,1.457554 1.20977,1.836519 l 7.812493,4.3508 c 2.077014,1.158756 3.36695,3.352375 3.36695,5.728189 v 8.286198 c 0,0.874532 0.335238,1.756353 1.085879,2.215483 l 4.547569,2.791217 c 1.027576,0.634036 1.355527,1.974986 0.721491,3.00985 -0.634037,1.027575 -1.974987,1.355526 -3.00985,0.72149 l -4.948398,-3.031714 c -0.539296,-0.32795 -1.217059,-0.276936 -1.770929,0.02915 l -7.812492,4.3508 c -1.982274,1.100454 -4.394528,1.100454 -6.376802,0 l -7.812492,-4.3508 c -0.830806,-0.459129 -1.851094,-0.612173 -2.674612,-0.138468 l -8.322637,4.817218 c -1.042151,0.604885 -2.383102,0.247784 -2.987987,-0.794367 -0.604885,-1.042152 -0.247784,-2.383102 0.794367,-2.987987 l 9.095141,-5.26906 c 0.473705,-0.276935 0.721489,-0.808943 0.721489,-1.362813 v -8.286198 c 0,-2.383101 1.289936,-4.576721 3.366951,-5.728189 l 7.812492,-4.3508 c 0.466418,-0.26236 0.801656,-0.728777 0.801656,-1.260785 v -5.349221 c 0,-1.20977 0.976561,-2.186332 2.186332,-2.186332 z m 9.437666,16.331898 -7.812492,-4.3508 c -0.881821,-0.488281 -1.953123,-0.488281 -2.834944,0 l -7.812492,4.3508 c -0.925548,0.517433 -1.493994,1.486706 -1.493994,2.550721 v 8.286198 c 0,1.056727 0.575734,2.033288 1.493994,2.55072 l 7.812492,4.3508 c 0.881821,0.488281 1.953123,0.488281 2.834944,0 l 7.812492,-4.3508 c 0.925547,-0.517432 1.501281,-1.486705 1.501281,-2.55072 v -8.286198 c 0,-1.056726 -0.575734,-2.033288 -1.501281,-2.550721 z"
     id="path2"
     style="fill:#2e3436;fill-opacity:1" /></svg>
