<?xml version="1.0" encoding="UTF-8" standalone="no"?>
<svg
   id="ICON"
   viewBox="0 0 128 128"
   version="1.1"
   sodipodi:docname="io.guthub.SokolovValy.MobileAuth.svg"
   width="128"
   height="128"
   inkscape:version="1.3.2 (091e20ef0f, 2023-11-25)"
   xmlns:inkscape="http://www.inkscape.org/namespaces/inkscape"
   xmlns:sodipodi="http://sodipodi.sourceforge.net/DTD/sodipodi-0.dtd"
   xmlns="http://www.w3.org/2000/svg"
   xmlns:svg="http://www.w3.org/2000/svg">
  <sodipodi:namedview
     id="namedview2"
     pagecolor="#ffffff"
     bordercolor="#000000"
     borderopacity="0.25"
     inkscape:showpageshadow="2"
     inkscape:pageopacity="0.0"
     inkscape:pagecheckerboard="0"
     inkscape:deskcolor="#d1d1d1"
     inkscape:zoom="3.3181818"
     inkscape:cx="73.684932"
     inkscape:cy="60.726027"
     inkscape:window-width="1920"
     inkscape:window-height="1011"
     inkscape:window-x="0"
     inkscape:window-y="0"
     inkscape:window-maximized="1"
     inkscape:current-layer="ICON" />
  <defs
     id="defs1">
    <style
       id="style1">
      .cls-1 {
        fill: #fff;
        fill-rule: evenodd;
      }

      .cls-1, .cls-2 {
        stroke-width: 0px;
      }

      .cls-2 {
        fill: #1d1d1b;
      }
    </style>
  </defs>
  <g
     id="g2"
     transform="matrix(0.5056965,0,0,0.5056965,2.8107235,2.8107235)">
    <path
       class="cls-2"
       d="m 126.6,24.77 c 13.46,-3.61 27.82,0.24 37.67,10.09 l 42.87,42.87 c 9.85,9.85 13.7,24.21 10.09,37.67 l -15.69,58.56 c -3.61,13.46 -14.12,23.97 -27.58,27.58 l -58.56,15.69 c -13.46,3.61 -27.82,-0.24 -37.67,-10.09 L 34.86,164.27 C 25.01,154.42 21.16,140.06 24.77,126.6 L 40.46,68.04 C 44.07,54.58 54.58,44.07 68.04,40.46 Z"
       id="path1" />
    <path
       class="cls-1"
       d="m 137.47,60.81 c 0,7.96 -6.45,14.41 -14.41,14.41 -7.96,0 -14.41,-6.45 -14.41,-14.41 0,-7.96 6.45,-14.41 14.41,-14.41 7.96,0 14.41,6.45 14.41,14.41 z m -0.28,118.88 c 0,7.96 -6.45,14.41 -14.41,14.41 -7.96,0 -14.41,-6.45 -14.41,-14.41 0,-7.96 6.45,-14.41 14.41,-14.41 7.96,0 14.41,6.45 14.41,14.41 z m 36,-81.8 c 4.73,0 8.57,-3.84 8.57,-8.57 0,-4.73 -3.84,-8.57 -8.57,-8.57 -4.73,0 -8.57,3.84 -8.57,8.57 0,4.73 3.84,8.57 8.57,8.57 z M 78.4,152.37 c 0,-4.73 -3.84,-8.57 -8.57,-8.57 -4.73,0 -8.57,3.84 -8.57,8.57 0,4.73 3.84,8.57 8.57,8.57 4.73,0 8.57,-3.84 8.57,-8.57 z m 96.71,14.92 c 9.09,0 16.46,-7.37 16.46,-16.46 0,-9.09 -7.37,-16.46 -16.46,-16.46 -9.09,0 -16.46,7.37 -16.46,16.46 0,9.09 7.37,16.46 16.46,16.46 z m -89,-76.69 c 0,-9.09 -7.37,-16.46 -16.46,-16.46 -9.09,0 -16.46,7.37 -16.46,16.46 0,9.09 7.37,16.46 16.46,16.46 9.09,0 16.46,-7.37 16.46,-16.46 z m 51.88,-15.91 c -3.72,3.97 -8.98,6.44 -14.8,6.44 -5.82,0 -11.2,-2.53 -14.93,-6.58 -1.44,-1.57 -3.76,-2.2 -5.62,-1.16 l -9.85,5.52 c -1.85,1.04 -2.53,3.34 -1.93,5.38 0.61,2.05 0.94,4.23 0.94,6.48 0,1.85 -0.22,3.65 -0.64,5.37 -0.46,1.9 0.18,3.98 1.85,5.01 l 6.3,3.87 c 1.41,0.87 1.87,2.72 1.03,4.15 -0.85,1.42 -2.68,1.88 -4.09,1.01 l -6.06,-3.72 c -1.75,-1.07 -3.99,-0.62 -5.48,0.79 -2.99,2.82 -6.74,4.83 -10.91,5.68 -2.12,0.43 -3.87,2.17 -3.87,4.33 v 17.95 c 0,2.15 1.74,3.86 3.78,4.54 5.5,1.84 9.48,7.1 9.48,13.31 0,0.58 -0.03,1.14 -0.1,1.7 -0.23,1.97 0.46,4.06 2.19,5.02 l 16.87,9.46 c 1.95,1.09 4.39,0.34 5.82,-1.37 2.32,-2.78 5.36,-4.92 8.83,-6.11 1.89,-0.65 3.36,-2.32 3.33,-4.32 l -0.14,-8.87 c -0.03,-1.66 1.3,-3.02 2.95,-3.05 1.66,-0.03 3.02,1.3 3.05,2.95 l 0.14,9.07 c 0.03,1.95 1.48,3.56 3.33,4.18 3.46,1.17 6.5,3.27 8.83,6.01 1.43,1.69 3.85,2.42 5.79,1.34 l 8.87,-4.97 c 1.94,-1.09 2.58,-3.53 1.84,-5.63 -0.82,-2.34 -1.27,-4.84 -1.27,-7.46 0,-11.05 7.98,-20.25 18.55,-22.26 2.14,-0.41 3.9,-2.15 3.9,-4.33 v -19.1 c 0,-1.29 -1.18,-2.26 -2.47,-2.26 -2.63,0 -5.09,-0.74 -7.2,-2.02 -1.51,-0.92 -3.43,-1.2 -4.96,-0.31 l -10.76,6.24 c -1.43,0.83 -3.25,0.33 -4.06,-1.11 -0.81,-1.44 -0.31,-3.29 1.13,-4.12 l 9.87,-5.73 c 1.73,-1 2.39,-3.12 2.1,-5.1 -0.1,-0.69 -0.15,-1.4 -0.15,-2.12 0,-0.76 0.06,-1.5 0.17,-2.23 0.31,-2.02 -0.37,-4.2 -2.15,-5.2 l -13.92,-7.8 c -1.84,-1.03 -4.14,-0.42 -5.59,1.12 z m -15.04,15.32 c 1.66,0 3,1.34 3,3 v 6.55 c 0,1.08 0.72,2 1.66,2.52 l 10.72,5.97 c 2.85,1.59 4.62,4.6 4.62,7.86 v 11.37 c 0,1.2 0.46,2.41 1.49,3.04 l 6.24,3.83 c 1.41,0.87 1.86,2.71 0.99,4.13 -0.87,1.41 -2.71,1.86 -4.13,0.99 l -6.79,-4.16 c -0.74,-0.45 -1.67,-0.38 -2.43,0.04 l -10.72,5.97 c -2.72,1.51 -6.03,1.51 -8.75,0 l -10.72,-5.97 c -1.14,-0.63 -2.54,-0.84 -3.67,-0.19 l -11.42,6.61 c -1.43,0.83 -3.27,0.34 -4.1,-1.09 -0.83,-1.43 -0.34,-3.27 1.09,-4.1 l 12.48,-7.23 c 0.65,-0.38 0.99,-1.11 0.99,-1.87 v -11.37 c 0,-3.27 1.77,-6.28 4.62,-7.86 l 10.72,-5.97 c 0.64,-0.36 1.1,-1 1.1,-1.73 v -7.34 c 0,-1.66 1.34,-3 3,-3 z m 12.95,22.41 -10.72,-5.97 c -1.21,-0.67 -2.68,-0.67 -3.89,0 l -10.72,5.97 c -1.27,0.71 -2.05,2.04 -2.05,3.5 v 11.37 c 0,1.45 0.79,2.79 2.05,3.5 l 10.72,5.97 c 1.21,0.67 2.68,0.67 3.89,0 l 10.72,-5.97 c 1.27,-0.71 2.06,-2.04 2.06,-3.5 v -11.37 c 0,-1.45 -0.79,-2.79 -2.06,-3.5 z"
       id="path2" />
  </g>
</svg>
